<?xml version="1.0" standalone="no"?>
<!DOCTYPE svg PUBLIC "-//W3C//DTD SVG 20010904//EN"
 "http://www.w3.org/TR/2001/REC-SVG-20010904/DTD/svg10.dtd">
<svg version="1.0" xmlns="http://www.w3.org/2000/svg"
 width="460.000000pt" height="460.000000pt" viewBox="0 0 460.000000 460.000000"
 preserveAspectRatio="xMidYMid meet">
<metadata>
Created by potrace 1.14, written by Peter Selinger 2001-2017
</metadata>
<g transform="translate(0.000000,460.000000) scale(0.100000,-0.100000)"
fill="#000000" stroke="none">
<path d="M2170 4443 c-75 -10 -213 -49 -279 -80 -42 -19 -130 -50 -196 -69
-327 -95 -619 -270 -874 -524 -132 -131 -236 -262 -312 -395 -19 -33 -42 -73
-52 -90 -74 -124 -175 -394 -201 -542 -3 -15 -8 -39 -11 -53 -24 -121 -30
-205 -29 -405 0 -171 7 -272 19 -315 2 -8 7 -35 10 -60 21 -153 161 -548 204
-574 6 -4 11 -14 11 -22 0 -18 104 -185 178 -284 31 -41 119 -138 196 -215
110 -109 169 -159 271 -227 127 -84 326 -194 409 -224 155 -57 281 -93 386
-110 19 -3 42 -7 50 -9 101 -28 529 -27 685 0 158 28 362 88 484 141 140 62
338 181 476 288 78 60 292 282 358 371 193 262 343 604 382 870 3 22 8 45 10
52 19 58 27 445 12 573 -46 389 -173 698 -429 1047 -50 68 -268 286 -344 345
-173 131 -458 292 -574 323 -76 21 -271 85 -295 97 -46 24 -204 75 -255 83
-50 8 -251 13 -290 8z"/>
</g>
</svg>
